<svg class="search-icon" width="16" height="18" viewBox="0 0 16 18" fill="none" xmlns="http://www.w3.org/2000/svg"> <path class="search-icon-circle" fill-rule="evenodd" clip-rule="evenodd" d="M6.27983 2.72729C3.76729 2.72729 1.73047 4.76411 1.73047 7.27666C1.73047 9.7892 3.76729 11.826 6.27983 11.826C8.79238 11.826 10.8292 9.7892 10.8292 7.27666C10.8292 4.76411 8.79238 2.72729 6.27983 2.72729ZM0.230469 7.27666C0.230469 3.93569 2.93886 1.22729 6.27983 1.22729C9.6208 1.22729 12.3292 3.93569 12.3292 7.27666C12.3292 10.6176 9.6208 13.326 6.27983 13.326C2.93886 13.326 0.230469 10.6176 0.230469 7.27666Z" fill="black"></path> <rect class="search-icon-line" x="10.3633" y="10.3041" width="8.06656" height="1.5" rx="0.75" transform="rotate(45 10.3633 10.3041)" fill="black"></rect> 
           </svg>