<?xml version="1.0" standalone="no"?>
<!DOCTYPE svg PUBLIC "-//W3C//DTD SVG 20010904//EN"
 "http://www.w3.org/TR/2001/REC-SVG-20010904/DTD/svg10.dtd">
<svg version="1.0" xmlns="http://www.w3.org/2000/svg"
 width="1024.000000pt" height="1024.000000pt" viewBox="0 0 1024.000000 1024.000000"
 preserveAspectRatio="xMidYMid meet">
<metadata>
Created by potrace 1.14, written by Peter Selinger 2001-2017
</metadata>
<g transform="translate(0.000000,1024.000000) scale(0.100000,-0.100000)"
fill="#000000" stroke="none">
<path d="M0 5120 l0 -5120 5120 0 5120 0 0 5120 0 5120 -5120 0 -5120 0 0
-5120z m6570 2875 l0 -745 -1710 0 -1710 0 0 -435 0 -435 1020 0 1020 0 0
-530 0 -530 -1020 0 -1020 0 0 -1905 0 -1905 -645 0 -645 0 0 3615 0 3615
2355 0 2355 0 0 -745z m1810 -2870 l0 -3615 -2355 0 -2355 0 0 745 0 745 1710
0 1710 0 0 435 0 435 -1020 0 -1020 0 0 530 0 530 1020 0 1020 0 0 1905 0
1905 645 0 645 0 0 -3615z"/>
</g>
</svg>
